<mxfile host="app.diagrams.net" modified="2021-08-04T15:35:51.575Z" agent="5.0 (Macintosh; Intel Mac OS X 10_15_7) AppleWebKit/605.1.15 (KHTML, like Gecko) Version/14.1.1 Safari/605.1.15" etag="oGnpKep4RGcG-pXr7U4n" version="14.9.4" type="github">
  <diagram id="5H-JUarLswRoktcmYy6B" name="第 1 页">
    <mxGraphModel dx="946" dy="501" grid="1" gridSize="10" guides="1" tooltips="1" connect="1" arrows="1" fold="1" page="1" pageScale="1" pageWidth="827" pageHeight="1169" math="0" shadow="0">
      <root>
        <mxCell id="0" />
        <mxCell id="1" parent="0" />
        <mxCell id="dMXhSyDoOkaiaUAp4gj4-1" value="脏读" style="ellipse;whiteSpace=wrap;html=1;aspect=fixed;fontSize=16;fillColor=#f8cecc;strokeColor=#b85450;" vertex="1" parent="1">
          <mxGeometry x="140" y="240" width="90" height="90" as="geometry" />
        </mxCell>
        <mxCell id="dMXhSyDoOkaiaUAp4gj4-2" value="不可重复读" style="ellipse;whiteSpace=wrap;html=1;aspect=fixed;fontSize=16;fillColor=#ffe6cc;strokeColor=#d79b00;" vertex="1" parent="1">
          <mxGeometry x="310" y="240" width="90" height="90" as="geometry" />
        </mxCell>
        <mxCell id="dMXhSyDoOkaiaUAp4gj4-3" value="幻读" style="ellipse;whiteSpace=wrap;html=1;aspect=fixed;fontSize=16;fillColor=#dae8fc;strokeColor=#6c8ebf;" vertex="1" parent="1">
          <mxGeometry x="500" y="240" width="90" height="90" as="geometry" />
        </mxCell>
        <mxCell id="dMXhSyDoOkaiaUAp4gj4-6" value="" style="group;fontSize=16;" vertex="1" connectable="0" parent="1">
          <mxGeometry x="250" y="250" width="40" height="80" as="geometry" />
        </mxCell>
        <mxCell id="dMXhSyDoOkaiaUAp4gj4-4" value="" style="endArrow=none;html=1;fontStyle=1;strokeWidth=2;fontSize=16;" edge="1" parent="dMXhSyDoOkaiaUAp4gj4-6">
          <mxGeometry width="50" height="50" relative="1" as="geometry">
            <mxPoint y="80" as="sourcePoint" />
            <mxPoint x="40" y="40" as="targetPoint" />
          </mxGeometry>
        </mxCell>
        <mxCell id="dMXhSyDoOkaiaUAp4gj4-5" value="" style="endArrow=none;html=1;fontStyle=1;strokeWidth=2;fontSize=16;" edge="1" parent="dMXhSyDoOkaiaUAp4gj4-6">
          <mxGeometry width="50" height="50" relative="1" as="geometry">
            <mxPoint as="sourcePoint" />
            <mxPoint x="40" y="40" as="targetPoint" />
          </mxGeometry>
        </mxCell>
        <mxCell id="dMXhSyDoOkaiaUAp4gj4-7" value="" style="group;fontSize=16;" vertex="1" connectable="0" parent="1">
          <mxGeometry x="430" y="250" width="40" height="80" as="geometry" />
        </mxCell>
        <mxCell id="dMXhSyDoOkaiaUAp4gj4-8" value="" style="endArrow=none;html=1;fontStyle=1;strokeWidth=2;fontSize=16;" edge="1" parent="dMXhSyDoOkaiaUAp4gj4-7">
          <mxGeometry width="50" height="50" relative="1" as="geometry">
            <mxPoint y="80" as="sourcePoint" />
            <mxPoint x="40" y="40" as="targetPoint" />
          </mxGeometry>
        </mxCell>
        <mxCell id="dMXhSyDoOkaiaUAp4gj4-9" value="" style="endArrow=none;html=1;fontStyle=1;strokeWidth=2;fontSize=16;" edge="1" parent="dMXhSyDoOkaiaUAp4gj4-7">
          <mxGeometry width="50" height="50" relative="1" as="geometry">
            <mxPoint as="sourcePoint" />
            <mxPoint x="40" y="40" as="targetPoint" />
          </mxGeometry>
        </mxCell>
      </root>
    </mxGraphModel>
  </diagram>
</mxfile>
